# xmcd
# Copyright (C) 1995-1998 Ti Kan
#
# Track frame offsets:
#       150
#       20475
#       44700
#       71550
#       89325
#       105712
#       128550
#       145807
#       160275
#
# Disc length: 2517 seconds
#
# Revision: 0
# Processed by: cddbd v1.4b42PL1 Copyright (c) Steve Scherf et al.
# Submitted via: CD-Transfer v1.0
#
DISCID=7a09d309
DTITLE=Rockbakery - Memories Of A Century
DYEAR=2000
DGENRE=
TTITLE0=One Good Less
TTITLE1=Memories Of A Century
TTITLE2=Your Own Shame
TTITLE3=Fish On Soil
TTITLE4=Fine Art
TTITLE5=Pay The Ride
TTITLE6=Zic Zac
TTITLE7=Delicious
TTITLE8=The Man I Used To Be
EXTD=
EXTT0=
EXTT1=
EXTT2=
EXTT3=
EXTT4=
EXTT5=
EXTT6=
EXTT7=
EXTT8=
PLAYORDER=
